<svg width="434" height="526" viewBox="0 0 434 526" fill="none" xmlns="http://www.w3.org/2000/svg">
<path d="M157.94 36.53L169.94 58.46C169.94 58.46 168.01 60.14 168.78 61.94C169.55 63.74 172.65 70.32 172.65 70.32L183.1 82.06L193.94 93.41C193.94 93.41 194.71 96.63 193.94 97.54C193.17 98.45 193.17 100.76 193.17 100.76L196.52 103.08C196.52 103.08 195.75 107.59 196.52 109.14C197.29 110.69 200.39 114.69 200.39 116.62C200.39 118.55 198.46 120.49 198.46 120.49L197.56 122.17C197.56 122.17 198.46 123.72 198.46 126.17C198.46 128.62 195.36 133.52 195.36 133.52C195.36 133.52 191.1 135.97 191.1 138.03C191.1 140.09 192.26 143.45 192.26 144.61C192.26 145.77 190.07 146.93 190.07 146.93C190.07 146.93 189.55 147.57 190.46 148.86C191.37 150.15 192.39 152.34 192.39 152.34C192.39 152.34 190.97 156.21 188.78 158.92C186.59 161.63 188.26 171.3 188.26 171.3L189.68 174.27L194.32 175.43C194.32 175.43 195.74 174.66 197.93 173.75C200.12 172.84 202.19 172.07 202.19 172.07L204.64 173.88L214.44 174.14L218.31 172.33C218.31 172.33 220.12 174.39 221.02 174.52C221.92 174.65 223.99 174.26 223.99 174.26L227.47 176.97H232.89C232.89 176.97 236.76 176.45 241.92 176.97C247.08 177.49 248.24 177.87 248.76 178C249.28 178.13 253.15 182.39 255.08 182.9C257.01 183.41 260.24 185.48 260.24 185.48L261.92 186.9C261.92 186.9 261.79 189.22 264.89 190.12C267.99 191.02 268.11 192.57 268.11 192.57L270.04 199.15C270.04 199.15 269.78 201.47 272.62 202.63C275.46 203.79 279.97 204.31 279.97 204.31C279.97 204.31 282.55 206.12 285.13 210.37C287.71 214.63 298.93 225.33 298.93 225.33L317.38 240.04C317.38 240.04 319.83 245.59 322.8 247.65C325.77 249.71 326.67 251.52 326.67 251.52V259.13C326.67 259.13 328.86 262.23 331.44 264.16C334.02 266.09 338.53 268.42 338.53 268.42L344.08 272.16L354.53 279.9C354.53 279.9 355.3 282.48 360.21 290.74C365.12 299 366.79 298.74 366.79 298.74L373.63 312.67C373.63 312.67 374.02 316.67 371.82 323.51C369.63 330.35 373.65 333.7 373.65 333.7L375.17 344.28L374.53 376.27L377.88 378.46C377.88 378.46 384.07 393.55 389.36 403.1C394.65 412.65 397.49 418.97 397.49 418.97L406.52 436.77L354.66 478.18C354.66 478.18 340.34 480.5 338.02 478.18C335.7 475.86 333.25 473.92 333.25 473.92C333.25 473.92 330.03 466.7 329.25 464.63C328.48 462.57 326.15 464.5 326.15 464.5C326.15 464.5 324.34 465.79 317.38 465.14C310.41 464.5 303.71 463.21 303.71 463.21C303.71 463.21 297.52 461.79 296.1 459.86C294.68 457.93 291.46 456.38 291.46 456.38C291.46 456.38 290.56 450.74 288.49 448.4C286.43 446.06 282.23 446.83 282.23 446.83C282.23 446.83 273.91 449.93 266.17 451.99C258.43 454.05 254.17 453.15 254.17 453.15L239.98 453.02L240.11 464.89L221.28 475.21L197.03 475.47L196.9 449.03C196.9 449.03 195.35 447.35 193.42 449.42C191.49 451.49 186.71 450.58 186.71 449.94C186.71 449.3 183.1 445.55 180.78 444.14C178.46 442.73 176.91 437.82 176.91 437.82L171.49 437.95C171.49 437.95 167.75 438.34 165.81 441.43C163.88 444.53 162.2 446.72 162.2 446.72C162.2 446.72 160.78 449.08 157.94 448.41C155.1 447.75 155.1 446.59 151.62 446.72C148.14 446.85 143.62 450.59 143.62 450.59C143.62 450.59 141.81 454.2 138.46 453.69C135.11 453.17 132.91 453.05 132.4 457.04C131.88 461.04 129.56 465.42 129.56 465.42L123.5 472.64C123.5 472.64 122.6 474.45 123.5 478.7C124.4 482.96 122.6 483.86 123.63 488.37C124.66 492.88 123.1 496.75 123.1 496.75C123.1 496.75 114.47 494.94 112.15 498.43C109.83 501.91 105.57 500.75 105.57 500.75C105.57 500.75 95.5099 493.27 93.4399 497.65C91.3799 502.04 89.0499 508.61 88.2799 508.74C87.5099 508.87 83.1199 501.77 83.1199 501.77C83.1199 501.77 82.0899 491.84 76.2799 488.74C70.4699 485.64 72.4099 475.45 72.4099 475.45C72.4099 475.45 66.7299 472.74 64.6699 469.9C62.6099 467.06 62.4799 453.65 62.4799 453.65L60.2899 446.43C60.2899 446.43 56.1599 442.17 56.8099 441.53C57.4599 440.89 63.8999 443.46 63.8999 443.46C63.8999 443.46 67.3799 444.36 68.6699 440.75C69.9599 437.14 73.5699 435.46 73.5699 435.46C73.5699 435.46 69.5699 427.2 65.1899 426.43C60.7999 425.66 53.1899 426.3 50.6099 420.24C48.0299 414.18 47.6399 404.76 47.6399 404.76L43.5099 404.24L42.7399 398.56C42.7399 398.56 40.0299 399.59 39.1299 389.27C38.2299 378.95 39.7699 375.6 39.7699 375.6C39.7699 375.6 40.2899 372.25 41.3199 358.7C42.3499 345.16 46.6099 337.54 46.6099 337.54C46.6099 337.54 49.0599 334.96 49.8299 335.22C50.5999 335.48 49.3099 338.32 52.1499 340.9C54.9899 343.48 55.2499 342.45 55.2499 342.45L56.4099 338.71L64.6699 330.58C64.6699 330.58 62.6099 330.32 63.3799 324.39C64.1499 318.46 61.6999 316.13 61.6999 316.13C61.6999 316.13 63.1199 309.94 64.4099 303.88C65.6999 297.82 68.7999 295.88 68.7999 295.88C68.7999 295.88 71.7699 294.85 70.4799 292.66C69.1899 290.47 68.7999 286.08 68.7999 286.08L70.4799 278.08C70.4799 278.08 72.5399 274.86 73.5799 271.63C74.6199 268.4 79.3799 263.5 79.6399 261.83C79.8999 260.15 82.4799 256.54 82.4799 256.54C82.4799 256.54 90.2199 260.8 92.1499 259.38C94.0799 257.96 101.7 247.25 101.7 247.25C101.7 247.25 102.34 239.38 104.8 237.45C107.26 235.52 108.54 230.48 107.38 229.07C106.22 227.66 97.5799 226.88 95.6399 225.46C93.6999 224.04 94.9999 221.59 94.9999 221.59C94.9999 221.59 99.8999 213.72 100.68 208.82C101.45 203.92 102.36 193.47 102.36 193.47C102.36 193.47 104.04 184.83 100.55 179.93C97.0699 175.03 95.3899 176.58 95.9099 169.61C96.4299 162.64 93.3299 154.65 93.3299 154.65C93.3299 154.65 93.9699 151.43 93.4599 149.23C92.9499 147.03 86.7499 142.65 90.3599 137.1C93.9699 131.55 95.6499 134 95.9099 130.39C96.1699 126.78 101.84 120.59 101.84 120.59C101.84 120.59 103.13 116.2 107.52 116.2C111.91 116.2 112.42 114.01 112.42 113.62C112.42 113.23 112.29 100.46 114.74 94.01C117.19 87.56 120.67 78.14 119.25 76.21C117.83 74.28 115.9 74.28 115.9 70.92C115.9 67.56 117.71 62.92 117.71 62.92L119.13 58.66C119.13 58.66 121.97 59.3 123.39 56.85C124.81 54.4 123.52 48.98 123.52 48.98L123.65 32.47L129.58 33.76C129.58 33.76 125.71 34.15 132.93 35.31C140.15 36.47 143.38 36.73 143.38 36.73C143.38 36.73 143.12 39.7 147.12 39.18C151.12 38.66 157.96 36.47 157.96 36.47L157.94 36.53Z" fill="#1870B2"/>
<path d="M157.94 36.53L169.94 58.46C169.94 58.46 168.01 60.14 168.78 61.94C169.55 63.74 172.65 70.32 172.65 70.32L183.1 82.06L193.94 93.41C193.94 93.41 194.71 96.63 193.94 97.54C193.17 98.45 193.17 100.76 193.17 100.76L196.52 103.08C196.52 103.08 195.75 107.59 196.52 109.14C197.29 110.69 200.39 114.69 200.39 116.62C200.39 118.55 198.46 120.49 198.46 120.49L197.56 122.17C197.56 122.17 198.46 123.72 198.46 126.17C198.46 128.62 195.36 133.52 195.36 133.52C195.36 133.52 191.1 135.97 191.1 138.03C191.1 140.09 192.26 143.45 192.26 144.61C192.26 145.77 190.07 146.93 190.07 146.93C190.07 146.93 189.55 147.57 190.46 148.86C191.37 150.15 192.39 152.34 192.39 152.34C192.39 152.34 190.97 156.21 188.78 158.92C186.59 161.63 188.26 171.3 188.26 171.3L189.68 174.27L194.32 175.43C194.32 175.43 195.74 174.66 197.93 173.75C200.12 172.84 202.19 172.07 202.19 172.07L204.64 173.88L214.44 174.14L218.31 172.33C218.31 172.33 220.12 174.39 221.02 174.52C221.92 174.65 223.99 174.26 223.99 174.26L227.47 176.97H232.89C232.89 176.97 236.76 176.45 241.92 176.97C247.08 177.49 248.24 177.87 248.76 178C249.28 178.13 253.15 182.39 255.08 182.9C257.01 183.41 260.24 185.48 260.24 185.48L261.92 186.9C261.92 186.9 261.79 189.22 264.89 190.12C267.99 191.02 268.11 192.57 268.11 192.57L270.04 199.15C270.04 199.15 269.78 201.47 272.62 202.63C275.46 203.79 279.97 204.31 279.97 204.31C279.97 204.31 282.55 206.12 285.13 210.37C287.71 214.63 298.93 225.33 298.93 225.33L317.38 240.04C317.38 240.04 319.83 245.59 322.8 247.65C325.77 249.71 326.67 251.52 326.67 251.52V259.13C326.67 259.13 328.86 262.23 331.44 264.16C334.02 266.09 338.53 268.42 338.53 268.42L344.08 272.16L354.53 279.9C354.53 279.9 355.3 282.48 360.21 290.74C365.12 299 366.79 298.74 366.79 298.74L373.63 312.67C373.63 312.67 374.02 316.67 371.82 323.51C369.63 330.35 373.65 333.7 373.65 333.7L375.17 344.28L374.53 376.27L377.88 378.46C377.88 378.46 384.07 393.55 389.36 403.1C394.65 412.65 397.49 418.97 397.49 418.97L406.52 436.77L354.66 478.18C354.66 478.18 340.34 480.5 338.02 478.18C335.7 475.86 333.25 473.92 333.25 473.92C333.25 473.92 330.03 466.7 329.25 464.63C328.48 462.57 326.15 464.5 326.15 464.5C326.15 464.5 324.34 465.79 317.38 465.14C310.41 464.5 303.71 463.21 303.71 463.21C303.71 463.21 297.52 461.79 296.1 459.86C294.68 457.93 291.46 456.38 291.46 456.38C291.46 456.38 290.56 450.74 288.49 448.4C286.43 446.06 282.23 446.83 282.23 446.83C282.23 446.83 273.91 449.93 266.17 451.99C258.43 454.05 254.17 453.15 254.17 453.15L239.98 453.02L240.11 464.89L221.28 475.21L197.03 475.47L196.9 449.03C196.9 449.03 195.35 447.35 193.42 449.42C191.49 451.49 186.71 450.58 186.71 449.94C186.71 449.3 183.1 445.55 180.78 444.14C178.46 442.73 176.91 437.82 176.91 437.82L171.49 437.95C171.49 437.95 167.75 438.34 165.81 441.43C163.88 444.53 162.2 446.72 162.2 446.72C162.2 446.72 160.78 449.08 157.94 448.41C155.1 447.75 155.1 446.59 151.62 446.72C148.14 446.85 143.62 450.59 143.62 450.59C143.62 450.59 141.81 454.2 138.46 453.69C135.11 453.17 132.91 453.05 132.4 457.04C131.88 461.04 129.56 465.42 129.56 465.42L123.5 472.64C123.5 472.64 122.6 474.45 123.5 478.7C124.4 482.96 122.6 483.86 123.63 488.37C124.66 492.88 123.1 496.75 123.1 496.75C123.1 496.75 114.47 494.94 112.15 498.43C109.83 501.91 105.57 500.75 105.57 500.75C105.57 500.75 95.5099 493.27 93.4399 497.65C91.3799 502.04 89.0499 508.61 88.2799 508.74C87.5099 508.87 83.1199 501.77 83.1199 501.77C83.1199 501.77 82.0899 491.84 76.2799 488.74C70.4699 485.64 72.4099 475.45 72.4099 475.45C72.4099 475.45 66.7299 472.74 64.6699 469.9C62.6099 467.06 62.4799 453.65 62.4799 453.65L60.2899 446.43C60.2899 446.43 56.1599 442.17 56.8099 441.53C57.4599 440.89 63.8999 443.46 63.8999 443.46C63.8999 443.46 67.3799 444.36 68.6699 440.75C69.9599 437.14 73.5699 435.46 73.5699 435.46C73.5699 435.46 69.5699 427.2 65.1899 426.43C60.7999 425.66 53.1899 426.3 50.6099 420.24C48.0299 414.18 47.6399 404.76 47.6399 404.76L43.5099 404.24L42.7399 398.56C42.7399 398.56 40.0299 399.59 39.1299 389.27C38.2299 378.95 39.7699 375.6 39.7699 375.6C39.7699 375.6 40.2899 372.25 41.3199 358.7C42.3499 345.16 46.6099 337.54 46.6099 337.54C46.6099 337.54 49.0599 334.96 49.8299 335.22C50.5999 335.48 49.3099 338.32 52.1499 340.9C54.9899 343.48 55.2499 342.45 55.2499 342.45L56.4099 338.71L64.6699 330.58C64.6699 330.58 62.6099 330.32 63.3799 324.39C64.1499 318.46 61.6999 316.13 61.6999 316.13C61.6999 316.13 63.1199 309.94 64.4099 303.88C65.6999 297.82 68.7999 295.88 68.7999 295.88C68.7999 295.88 71.7699 294.85 70.4799 292.66C69.1899 290.47 68.7999 286.08 68.7999 286.08L70.4799 278.08C70.4799 278.08 72.5399 274.86 73.5799 271.63C74.6199 268.4 79.3799 263.5 79.6399 261.83C79.8999 260.15 82.4799 256.54 82.4799 256.54C82.4799 256.54 90.2199 260.8 92.1499 259.38C94.0799 257.96 101.7 247.25 101.7 247.25C101.7 247.25 102.34 239.38 104.8 237.45C107.26 235.52 108.54 230.48 107.38 229.07C106.22 227.66 97.5799 226.88 95.6399 225.46C93.6999 224.04 94.9999 221.59 94.9999 221.59C94.9999 221.59 99.8999 213.72 100.68 208.82C101.45 203.92 102.36 193.47 102.36 193.47C102.36 193.47 104.04 184.83 100.55 179.93C97.0699 175.03 95.3899 176.58 95.9099 169.61C96.4299 162.64 93.3299 154.65 93.3299 154.65C93.3299 154.65 93.9699 151.43 93.4599 149.23C92.9499 147.03 86.7499 142.65 90.3599 137.1C93.9699 131.55 95.6499 134 95.9099 130.39C96.1699 126.78 101.84 120.59 101.84 120.59C101.84 120.59 103.13 116.2 107.52 116.2C111.91 116.2 112.42 114.01 112.42 113.62C112.42 113.23 112.29 100.46 114.74 94.01C117.19 87.56 120.67 78.14 119.25 76.21C117.83 74.28 115.9 74.28 115.9 70.92C115.9 67.56 117.71 62.92 117.71 62.92L119.13 58.66C119.13 58.66 121.97 59.3 123.39 56.85C124.81 54.4 123.52 48.98 123.52 48.98L123.65 32.47L129.58 33.76C129.58 33.76 125.71 34.15 132.93 35.31C140.15 36.47 143.38 36.73 143.38 36.73C143.38 36.73 143.12 39.7 147.12 39.18C151.12 38.66 157.96 36.47 157.96 36.47L157.94 36.53Z" stroke="white" stroke-width="0.75" stroke-miterlimit="10"/>
<path d="M176.9 438.08C176.9 438.08 178.17 435.2 178.17 432.62C178.17 430.04 177.72 428.04 177.72 428.04C177.72 428.04 179.14 428.81 179.14 425.14C179.14 421.47 177.53 415.66 175.4 410.43C173.27 405.2 174.37 397.21 174.37 397.21C174.37 397.21 176.24 395.02 173.14 389.41C170.04 383.8 168.63 376.57 168.63 376.57C168.63 376.57 170.31 374.25 170.11 371.67C169.91 369.09 166.63 365.93 166.63 362.9C166.63 359.87 166.76 359.22 166.18 351.16C165.6 343.1 167.66 334.84 167.66 334.84C167.66 334.84 172.05 328.45 173.21 324.13C174.37 319.81 177.27 305.36 177.27 305.36L179.66 302.84C179.66 302.84 179.34 304.62 167.08 300.88C154.83 297.14 148.33 291.81 148.33 291.81C148.33 291.81 141.54 290.43 137.06 290.43C132.58 290.43 126.44 285.44 126.44 285.44L121.11 285.14C121.11 285.14 119.26 280.63 117.03 276.54C114.8 272.45 114.71 265.23 114.71 265.23C114.71 265.23 106.84 259.38 107.31 252.59C107.78 245.8 102.33 243.37 102.33 243.37" stroke="#EAEAEA" stroke-width="0.5" stroke-miterlimit="10"/>
<path d="M253.99 453.43C253.99 453.43 252.03 450.79 255.43 447.56C258.83 444.34 258.14 439.65 258.14 439.65L251.56 427.78C251.56 427.78 249.45 423.87 247.78 421.72C246.11 419.57 248.94 417.64 248.94 417.64L249.63 409.34L253.07 404.78L406.51 437.05" stroke="#EAEAEA" stroke-width="0.5" stroke-miterlimit="10"/>
<path d="M374.52 376.55C374.52 376.55 356.87 379.5 354.5 379.07C352.14 378.64 347.62 372.02 347.62 371.89C347.62 371.76 347.62 367.29 344.95 361.27C342.28 355.25 341.9 350.31 341.9 350.31C341.9 350.31 343.53 345.11 342.16 343C340.79 340.89 339.45 338.18 339.45 338.18L341.04 336.33L334.46 330.65C334.46 330.65 339.23 326.82 337.47 324.24C335.71 321.66 323.67 307.47 323.67 307.47C323.67 307.47 322.55 303.82 318.77 300.46C314.99 297.11 311.46 290.48 311.46 290.48C311.46 290.48 309.83 273.24 310 272.38C310.17 271.52 306.56 269.28 306.47 266.36C306.38 263.44 305.83 256.47 305.83 256.47C305.83 256.47 304.24 257.33 301.1 252.17C297.96 247.01 292.46 239.1 292.46 239.1C292.46 239.1 290.78 237.81 288.12 237.64C285.45 237.47 284.47 231.71 284.47 231.71C284.47 231.71 284 223.28 280.47 217.82C276.94 212.36 273.63 206.6 273.63 206.6C273.63 206.6 271.48 204.62 270.53 207.72C269.58 210.82 267.09 212.58 267.09 212.58L264.38 217.18C264.38 217.18 264.04 218.21 262.62 215.55C261.2 212.88 262.19 211.51 260.9 208.63C259.61 205.75 257.33 198.31 257.33 198.31C257.33 198.31 254.75 196.42 254.02 194.96C253.29 193.5 254.41 192.21 254.41 192.21L261.91 187.2" stroke="#EAEAEA" stroke-width="0.5" stroke-miterlimit="10"/>
<path d="M333.85 319.62L243.33 318.74C243.33 318.74 245.33 320.67 244.1 321.45C242.87 322.23 237.91 324.61 237.26 326.61C236.61 328.61 236.36 329.64 236.36 329.64L213.21 328.61C213.21 328.61 214.18 313.45 212.11 311.39C210.04 309.33 207.79 302.62 207.79 302.62C207.79 302.62 209.34 296.04 206.76 291.91C204.18 287.78 202.95 285.07 202.95 285.07C202.95 285.07 201.21 281.07 202.11 279.46C203.01 277.85 190.95 275.59 190.95 275.59C190.95 275.59 189.6 269.01 187.92 264.37C186.24 259.73 185.47 260.11 185.47 260.11C185.47 260.11 187.21 257.4 186.5 255.08C185.79 252.76 187.27 250.63 187.27 250.63C187.27 250.63 186.75 248.7 185.72 245.34C184.69 241.98 185.85 233.86 185.85 233.86C185.85 233.86 188.82 227.09 186.88 222.57C184.95 218.06 186.49 212.31 186.49 212.31C186.49 212.31 187.26 210.96 187.07 203.09C186.88 195.22 189.77 174.57 189.77 174.57" stroke="#EAEAEA" stroke-width="0.5" stroke-miterlimit="10"/>
<path d="M178.92 427.12L219.75 427.61C219.75 427.61 224.44 424.45 232.74 424.21C241.04 423.97 243.34 424.64 243.34 424.64C243.34 424.64 244.29 425.37 243.88 423.57C243.47 421.77 242.07 419.25 242.07 419.25L247.26 419.55" stroke="#EAEAEA" stroke-width="0.5" stroke-miterlimit="10"/>
<path d="M219.55 427.61C219.55 427.61 222.54 413.79 221.01 409.08C219.48 404.37 217.4 399.9 217.4 399.9C217.4 399.9 216.35 396.7 218.63 396.27C220.91 395.84 224.56 395.97 224.56 395.97C224.56 395.97 224.43 393.65 225.2 392.29C225.97 390.93 227.52 389.69 227.52 389.69L235.86 393.62L233.65 396.87L236.47 397.92C236.47 397.92 234.88 407.87 237.24 412.35C239.6 416.83 242.06 419.25 242.06 419.25" stroke="#EAEAEA" stroke-width="0.5" stroke-miterlimit="10"/>
<path d="M166.35 353.72L176.71 353.88C176.71 353.88 178.56 356.5 180.19 356.42C181.82 356.34 183.74 358.4 183.74 358.4C183.74 358.4 186.02 365.49 187.35 366.38C188.68 367.27 189.87 373.11 189.87 373.11C189.87 373.11 190.62 379.82 189.87 382.12C189.12 384.42 192.45 383.71 192.45 383.71L211.48 382.91C211.48 382.91 218.75 382.91 220.04 381.71C221.33 380.51 223.32 379.91 223.32 379.91L219.91 384.39L217.85 388.9L218.41 396.31" stroke="#EAEAEA" stroke-width="0.5" stroke-miterlimit="10"/>
<path d="M236.36 329.64C236.36 329.64 234.81 340.87 233.78 348.84C232.75 356.81 231.3 364.06 228.27 368.74C225.24 373.42 224.79 374.61 224.79 374.61L226.43 377.25L223.17 380.02C223.17 380.02 221.72 382.05 223.85 382.66C225.98 383.27 227.14 382.92 227.14 382.92C227.14 382.92 227.72 379.99 232.17 378.66C236.62 377.34 240.04 377.89 240.04 377.89C240.04 377.89 243.14 367.34 246.72 364.28C250.3 361.22 252.72 360.93 252.72 360.93L253.77 318.84" stroke="#EAEAEA" stroke-width="0.5" stroke-miterlimit="10"/>
<path d="M290.21 319.07L306.37 327.65C306.37 327.65 296.92 343.42 296.76 346.29C296.6 349.16 295.63 358.45 295.63 358.45C295.63 358.45 293.34 364 289.31 368.77C285.28 373.54 282.41 378.38 282.41 378.38L240.04 377.9" stroke="#EAEAEA" stroke-width="0.5" stroke-miterlimit="10"/>
<path d="M282.77 379.44L286.74 398.43L250.01 390.27C250.01 390.27 251.56 392.2 251.75 396.37C251.94 400.54 253.07 404.67 253.07 404.67" stroke="#EAEAEA" stroke-width="0.5" stroke-miterlimit="10"/>
<path d="M250.18 390.31L245.81 385.95L242.29 391.5C242.29 391.5 244.9 399.11 245.26 403.98C245.61 408.85 249.62 409.33 249.62 409.33" stroke="#EAEAEA" stroke-width="0.5" stroke-miterlimit="10"/>
<path d="M227.43 389.76L227.22 387.32C227.22 387.32 230.51 389.16 231.65 389.03C232.79 388.9 233.89 388.88 233.89 388.88C233.89 388.88 230.84 387.91 230.67 386.86C230.5 385.81 230.51 384.22 230.51 384.22L227.2 382.82" stroke="#EAEAEA" stroke-width="0.5" stroke-miterlimit="10"/>
<path d="M230.51 384.22L236.25 383.14L236.48 388.58L233.9 388.88" stroke="#EAEAEA" stroke-width="0.5" stroke-miterlimit="10"/>
<path d="M240.04 377.89L242.83 382.69L245.81 385.95" stroke="#EAEAEA" stroke-width="0.5" stroke-miterlimit="10"/>
<path d="M242.72 382.5L236.25 383.14" stroke="#EAEAEA" stroke-width="0.5" stroke-miterlimit="10"/>
</svg>
