<svg width="1211" height="366" viewBox="0 0 1211 366" fill="none" xmlns="http://www.w3.org/2000/svg">
<g clip-path="url(#clip0_2_379)">
<path d="M1210.89 0H0V365.75H1210.89V0Z" fill="white"/>
<path d="M1192.59 0H18.3C8.19319 0 0 8.19319 0 18.3V347.45C0 357.557 8.19319 365.75 18.3 365.75H1192.59C1202.7 365.75 1210.89 357.557 1210.89 347.45V18.3C1210.89 8.19319 1202.7 0 1192.59 0Z" fill="#146DC6"/>
<path d="M1192.59 0H18.3C8.19319 0 0 8.19319 0 18.3V347.45C0 357.557 8.19319 365.75 18.3 365.75H1192.59C1202.7 365.75 1210.89 357.557 1210.89 347.45V18.3C1210.89 8.19319 1202.7 0 1192.59 0Z" fill="url(#paint0_linear_2_379)"/>
<g opacity="0.1">
<mask id="mask0_2_379" style="mask-type:luminance" maskUnits="userSpaceOnUse" x="0" y="0" width="1211" height="366">
<path d="M1192.59 0H18.3C8.19319 0 0 8.19319 0 18.3V347.45C0 357.557 8.19319 365.75 18.3 365.75H1192.59C1202.7 365.75 1210.89 357.557 1210.89 347.45V18.3C1210.89 8.19319 1202.7 0 1192.59 0Z" fill="white"/>
</mask>
<g mask="url(#mask0_2_379)">
<path d="M879.99 149.36L471.5 -260.09C465.6 -266.01 457.59 -269.33 449.25 -269.33H357.9C340.52 -269.33 326.43 -255.21 326.43 -237.79V586.6C326.43 604.02 340.52 618.14 357.9 618.14H457.62C465.97 618.14 473.97 614.82 479.87 608.9L879.99 207.84C896.1 191.69 896.1 165.5 879.99 149.35" fill="url(#paint1_linear_2_379)"/>
<path d="M1070.74 558.71L1070.48 558.97H1179.43C1196.81 558.97 1210.9 544.87 1210.9 527.48V-178.64C1210.9 -196.03 1196.81 -210.12 1179.44 -210.12H960.66V-210.16H875.18C838.42 -210.16 820.01 -165.69 846 -139.68L1137.55 152.05C1149.84 164.35 1149.84 184.28 1137.55 196.58L829.35 504.96C809.53 524.8 823.57 558.71 851.6 558.71H1070.74Z" fill="#F6F6F6"/>
</g>
</g>
</g>
<defs>
<linearGradient id="paint0_linear_2_379" x1="595.86" y1="44.92" x2="624.35" y2="454.94" gradientUnits="userSpaceOnUse">
<stop stop-color="#146DC6"/>
<stop offset="1" stop-color="#135191"/>
</linearGradient>
<linearGradient id="paint1_linear_2_379" x1="833.54" y1="174.41" x2="347.56" y2="174.41" gradientUnits="userSpaceOnUse">
<stop stop-color="#F6F6F6"/>
<stop offset="1" stop-opacity="0"/>
</linearGradient>
<clipPath id="clip0_2_379">
<rect width="1210.89" height="365.75" fill="white"/>
</clipPath>
</defs>
</svg>
