<svg xmlns="http://www.w3.org/2000/svg" fill="none" viewBox="45.19 117.02 476.87 131.72"><path fill="#ff0030" d="m115.27 117.02 33.16.08c8.79.02 15.28 7.5 15.25 16.27l-.34 101.93c-.02 6.3-7.2 13.16-13.47 13.17l-88.17.27c-8.2.02-16.31-6.17-16.32-14.66l-.19-100.72c-.02-8.79 6.47-16.25 15.29-16.27l33.15-.07c3.27 0 4.84 2.63 4.83 5.81l-.23 82.44-44.8.68c6.84 23.11 27.53 37.94 50.38 38.23 23.41.3 44.64-14.75 51.66-38.19l-44.96-.96v-83.35c0-2.75 2.27-4.66 4.76-4.65z"/><path fill="#30495c" d="M485.77 219.26c-3.83.78-7.81.57-11.58-.11-.94-10.75.8-21.27-.88-31.9-1.06-6.69-7.36-8.78-13.34-7.89-5.05.75-9.97 5.07-10.07 11.37l-.46 28.47c-3.97.7-7.51.62-11.67.25l.02-49.24c1.7-.85 12.85-3.12 12.2 3.97 9.97-7.27 23.81-7.67 32.67 2.52 6.18-6.23 13.15-8.11 21.03-7.72 9.66.49 18 7.21 18.09 17.25l.28 32.98c-4.4.72-7.93.87-11.47-.2-2.04-13.8 6.45-42.08-13.38-39.84-16.94 1.91-9.91 25.11-11.44 40.09M320.62 219.24c-1.64-.44-.92-3.17-1.92-4.61-7.84 6.55-18.46 7.28-27.72 3.06-8.95-4.09-13.9-13.77-13.52-24.34.36-9.87 5.44-18.34 13.72-21.97 9.33-4.09 19.66-3.41 27.68 3.56l.4-24.45c3.86-.48 7.56-.5 11.45.07l.03 68.52c-3.52.67-6.73 1.08-10.12.16m-1.38-25.46c-.36-9.48-7.4-15.26-15.48-15.01-8.38.26-14.35 6.72-14.49 15.63-.15 9.34 6.74 16.27 15.68 15.9 8.18-.34 14.65-6.91 14.29-16.52M255.48 204.68c-11.04-1.14-21.69-.46-32.57-.36l-6.93 13.92c-1.58 3.18-8.64 1.28-12.33.63l29.21-64.64c4.5-.4 8.02-.45 12.35-.01l29.24 64.68c-3.37.53-9.11 2.13-12.07-.18-3.69-2.87-3.5-8.89-6.89-14.04zm-4.27-10.34c-4.77-9.73-7.22-18.59-12.55-27.16l-11.92 27.3c8.96.32 15.93.59 24.46-.14zM422.13 170.05l-.05 49.19c-4.01.36-7.35 1.1-10.47-.08-1.09-.97.08-3.28-.98-5.19-4.66 4.67-10.22 6.24-16.82 6.3-10.99.1-20.2-7.27-20.26-18.5l-.18-31.71c3.86-1.01 7.74-1.01 11.43.01.72 10.3-.76 20.52.74 30.96 1.04 7.25 7.8 9.85 14.19 8.77 5.71-.96 10.58-5.87 10.66-12.79l.3-27c3.56-.97 7.04-.95 11.45.03zM346.532 169.376l-.018 50.23 11.59.004.018-50.23zM352.32 161.5c4.01 0 7.26-3.232 7.26-7.22s-3.25-7.22-7.26-7.22-7.26 3.233-7.26 7.22c0 3.988 3.25 7.22 7.26 7.22"/></svg>