<svg xmlns="http://www.w3.org/2000/svg" fill="none" viewBox="18.94 141.84 529.37 82.09">
<path d="M57.5199 219.36L18.9399 219.14C20.5999 218.57 22.5899 218.01 24.5199 218L65.5599 217.84L547.86 213.27L525.89 223.93L57.5199 219.36Z" fill="#A39161"/>
<path d="M63.74 172.54C69.65 173.99 74.76 175.89 77.84 180.77C81.96 187.31 79.58 195.52 73.12 199.79C67.06 203.62 60.07 205.14 52.76 205.19L19.06 205.42L19 143.43L54.81 143.57C60.13 143.59 65.13 145.13 69.62 147.63C76.66 151.57 78.6 160.57 73.44 166.69C70.93 169.66 67.57 170.52 63.75 172.56L63.74 172.54ZM61.48 159.69C60.83 154.58 53.5 153.14 49.05 153.1L33.78 152.97L33.8 168.23L46.96 168.34C52.94 168.39 62.41 167.02 61.48 159.7V159.69ZM64.96 187.51C65.17 184.92 64.56 182.27 62.16 180.79C59.33 179.05 55.84 178.3 52.44 178.28L33.78 178.17L33.8 195.53H50.39C55.74 195.52 64.46 193.77 64.97 187.51H64.96Z" fill="#005581"/>
<path d="M253.52 205.26L235.9 205.37L216.68 179.13L206.22 179.11L206.04 205.27L191.31 205.36L191.25 143.42L224.58 143.54C233.61 143.57 248.17 146.73 250.37 157.27C251.67 163.51 249.87 169.01 245.33 172.86C241.66 175.98 237.31 177.11 232.19 178.16L253.52 205.27V205.26ZM235.21 160.39C234.7 154.69 227 153.15 222.15 153.13L206.25 153.06L206.11 169.34C213.76 169.18 236.27 172.33 235.21 160.39Z" fill="#005581"/>
<path d="M333.36 205.07C327.38 205.79 321.77 205.25 315.78 205.35L296.5 179.09L286.1 179.12L285.88 205.35H271.26L271.2 143.44L304.3 143.52C310.01 143.53 315.5 144.65 320.64 146.73C325.97 148.96 329.66 153.13 330.46 158.21C332.28 169.69 323.6 176.43 312.04 178.13L333.36 205.06V205.07ZM315 159.72C314.12 154.49 306.51 153.15 301.93 153.14L286.11 153.08L286.13 169.51C294.29 169.06 317.13 172.37 315 159.72Z" fill="#005581"/>
<path d="M507.29 171.91L548.31 205.24L527.57 205.37L491.21 174.87L490.73 205.36L476.1 205.35L476 143.54L490.81 143.43L491.23 169.42L525.34 143.52L545.18 143.61L507.29 171.91Z" fill="#005581"/>
<path d="M151.25 191.3L115.58 191.13L107.92 205.34L91.3301 205.23L127.28 143.51L140.21 143.43L175.89 205.45L158.86 205.4L151.24 191.31L151.25 191.3ZM145.63 181.09L133.35 156.94L120.87 181.32L145.63 181.09Z" fill="#005581"/>
<path d="M407.06 188.45C416.73 198.45 437.31 200.09 447.69 189.14L459.8 195.79C444.08 212.98 402.52 210.18 389.77 189.49C380.99 175.23 386.18 157.37 400.54 148.95C416.15 139.8 443.59 138.22 458.09 151.76L446.44 158.13C436.82 149.58 419.76 150.8 409.96 157.58C399.49 164.82 398.14 179.25 407.05 188.46L407.06 188.45Z" fill="#005581"/>
<path d="M365.47 143.4H350.59V205.4H365.47V143.4Z" fill="#005581"/>
</svg>