<svg xmlns="http://www.w3.org/2000/svg" fill="none" viewBox="107.46 105.82 352.36 154.11">
<path d="M176.73 124.35C181.56 124.72 185.47 121.85 186.56 117.21C186.98 115.42 187.04 113.45 186.6 111.63C185.79 108.26 183.17 106 179.65 105.83C177.79 105.74 175.73 106.32 174.16 107.47C171.95 109.08 170.85 111.59 170.28 114.24C169.8 116.51 170.2 118.55 171.08 120.52C172.16 122.94 174.03 124.16 176.73 124.36V124.35Z" fill="#BE1622"/>
<path d="M149.65 173.07H137.98C136.96 173.07 135.92 173.45 134.95 173.14C134.59 172.03 135.18 171.01 135.33 169.99C135.47 169.04 135.64 168.17 135.84 167.21L136.77 162.64C136.94 161.81 137.04 161.06 137.2 160.21L138.81 151.87C138.97 151.06 139.09 150.35 139.25 149.55L140.77 141.56L142.75 131.27L143.2 128.67L144.22 123.73L145.88 115.43L146.47 111.86C146.58 111.19 147.11 110.05 146.54 109.51L130.18 109.49C129.8 110.59 129.74 111.56 129.54 112.63L128.27 119.23C128.05 120.38 127.95 121.49 127.7 122.65C126.89 126.44 126.02 130.1 125.51 133.94C125.37 135 125.08 136.05 124.82 137.11C124.4 138.89 124.2 140.6 123.95 142.39C123.82 143.34 123.24 144.19 123.3 145.22C123.34 145.97 122.95 146.63 122.83 147.33L121.55 154.53L120.67 159.22L116.62 180.15C116.3 181.78 116.21 183.24 115.66 184.84C115.37 185.69 115.45 186.76 115.45 187.72H149.83C150.67 185.94 150.63 184.05 151.08 182.19C151.48 180.5 152.73 174.91 152.46 173.38C151.59 173.28 150.67 173.07 149.64 173.07H149.65Z" fill="#BE1622"/>
<path d="M346.76 187.13C346.97 186.63 347.11 185.98 347.21 185.45L348.85 176.34C348.92 175.94 348.99 175.65 348.85 175.44C348.6 175.08 348.3 175.09 347.88 175.18C346.43 175.51 344.96 175.36 343.41 175.11C341.47 174.8 340.36 172.71 340.33 170.83C340.32 169.81 340.06 168.85 340.25 167.82L341 163.87L341.83 159.77L342.39 156.9L343.09 152.97L343.94 148.75C344.38 146.59 344.6 144.48 345.38 142.35H355.89L356.25 140.28C356.35 139.68 356.6 139.26 356.69 138.63L357.16 135.6C357.42 133.95 358.54 130.79 357.29 130.77L347.44 130.63C347.6 129.93 347.47 129.17 347.74 128.56C348.05 127.85 348.7 123.59 348.91 122.44C349.23 120.65 349.7 118.98 349.76 117.15C349.78 116.6 350.4 116.1 350.08 115.39L343.84 117.18L333 120.28C332.22 120.68 331.49 126.02 331.3 127.16C331.16 127.97 330.8 128.67 330.88 129.55C330.94 130.23 330.44 130.72 329.81 130.72L324.07 130.78L323.04 135.8L322.13 140.91C322.07 141.25 321.56 142.09 322.2 142.23C324.29 142.69 328.06 141.87 328.31 142.67C328.4 142.94 328.23 143.18 328.17 143.47L327.17 148.25L326.01 154.24L325.03 159.61C324.46 162.71 323.54 166.36 323.22 169.37L322.99 171.47C322.62 174.95 322.73 178.55 324.32 181.73C325.31 183.72 326.77 185.58 328.77 186.58C330.77 187.58 333.09 188.24 335.31 188.31C337.21 188.37 346.09 188.7 346.75 187.1L346.76 187.13Z" fill="#BE1622"/>
<path d="M280.96 171.26L280.41 174.18L279.31 179.52L278.54 183.9C278.31 185.22 277.75 186.44 278.04 187.75L294.34 187.65C295.23 187.25 295.15 183.33 295.7 181.73C296.29 180.02 296.37 178.4 296.69 176.68L298.46 167.2L299.9 160.27C301.24 153.83 307.32 145.01 315.58 146.86L316.91 140.53L317.74 136.06C318.1 134.11 318.58 132.28 318.78 130.2C315.86 129.01 311.65 130.56 309.13 132.26C308.6 132.62 308.24 133.08 307.78 133.46C306.99 134.11 306.19 134.63 305.57 135.48C304.7 136.68 303.67 137.71 302.95 139.05C302.8 139.33 302.56 139.59 302.34 139.62C300.93 139.82 302.17 138.64 302.09 136.31C301.97 132.6 303.15 131.95 302.02 130.83L288.61 130.77C288.07 131.1 287.98 132.22 287.9 132.82C287.62 134.82 287.22 136.67 286.94 138.62L286.39 142.39C286.25 143.33 286.15 144.15 285.95 145.05L285.14 148.87L283.7 156.66L283.11 160.2L282.11 164.99L280.96 171.26Z" fill="#BE1622"/>
<path d="M172.31 187.71C172.81 187.71 173.12 187.25 173.18 186.94L174.15 182.14L175.37 175.54L176.57 169.37L177.99 161.74L178.41 159.64L180.44 149.08L182.5 137.92C182.74 136.61 183.26 135.41 183.13 134.04C183.6 133.01 183.91 131.98 183.74 130.78H167.11L163.15 151.54C162.85 153.12 162.47 154.51 162.39 156.07C161.95 157.14 161.93 158.25 161.75 159.38C161.56 160.59 161.21 161.78 160.97 162.95L160.54 165.07C159.72 169.11 159.11 172.87 158.29 176.93L157.5 180.82C157.27 181.96 157.43 183.1 156.95 184.21C156.47 185.32 156.3 186.59 156.62 187.73H172.3L172.31 187.71Z" fill="#BE1622"/>
<path d="M213.09 231.88L215.42 231.12L220.65 229.72L224.99 228.55C226.71 228.09 228.36 227.68 230.06 227.27L237.31 225.51L244.28 223.9L247.24 223.24C249.12 222.82 250.88 222.35 252.74 221.97L260.88 220.34L265 219.62L277.01 217.44L279.81 216.98L288.35 215.66L296.49 214.52L307.34 213.12C309.79 212.8 312.13 212.57 314.57 212.29L320.99 211.55L330.08 210.65C330.82 210.58 331.61 210.78 332.34 210.61C334.05 210.21 335.71 210.2 337.44 210.08L347.13 209.39L350.14 209.16C351.35 209.07 352.4 208.9 353.65 208.98C354.69 209.04 355.75 208.55 356.86 208.74C357.63 208.87 363.16 208.4 364.49 208.36L370.8 208.18L378.84 207.85C380.25 207.79 381.59 207.85 383.02 207.82L388.41 207.7C390.72 207.65 392.96 207.49 395.33 207.63L398.08 207.79C398.64 207.82 402.92 207.8 402.32 207.32C402.23 207.24 402.11 207.06 401.95 207.04L388.47 205.56L375.4 204.3L372.61 204.09L369.61 203.83L358.59 203.01L352.95 202.68L349.26 202.44L343.71 202.23L337.93 202.12C337.31 202.11 336.71 201.84 336.06 201.89C333.63 202.07 331.31 201.76 328.9 201.74L323.08 201.69L296.29 201.73C295.07 201.73 294.01 202.02 292.79 201.89C291.7 201.78 290.64 202.08 289.56 202.11L282.95 202.26L278.27 202.47C277.44 202.51 276.74 202.54 275.89 202.6L258.56 203.81L245.84 204.94L233.28 206.26L222.4 207.67L214.88 208.71L211.63 209.2C209.28 209.56 207.02 209.88 204.69 210.3L196.61 211.72L191.89 212.54C191.27 212.65 190.73 212.73 190.1 212.86L182.43 214.41L176.93 215.66C175.07 216.08 173.34 216.51 171.47 216.91L169.02 217.43L160.34 219.61L156.25 220.65L152.13 221.85L149.1 222.76L142.5 224.71L132.98 227.95C131.52 228.45 130.16 228.87 128.75 229.46L124.47 231.24C123.02 231.84 121.6 232.35 120.03 233L117.26 234.14L107.46 238.85C109.78 241.41 113.76 243.97 116.73 245.98L119.78 248.04L123.86 250.44L126.06 251.71C127.54 252.57 128.93 253.32 130.46 254.04C131.23 254.4 132.08 254.74 132.82 255.15C135.19 256.44 137.67 257.28 140.1 258.51L142.23 259.59C143.46 260.21 144.18 259.91 145.26 259.22C146.85 258.21 148.54 257.26 150.24 256.39L158.66 252.04C168.02 247.21 189.75 238.9 199.98 235.75L206.01 233.89L213.14 231.87L213.09 231.88Z" fill="#BE1622"/>
<path d="M459.71 107.41L444.02 107.43C443.11 107.43 442.99 108.57 442.88 109.19L442.25 112.79C441.93 114.6 441.46 116.33 441.16 118.13L440.64 121.31L439.07 129.91C438.99 130.36 438.61 130.94 438.08 130.71C434.59 129.2 430.72 129.84 427.22 130.74C424.9 131.34 422.96 132.67 420.9 133.87C419.82 134.5 419.11 135.28 418.21 136.01C414.58 138.97 410.53 145.47 408.97 149.81L408.28 151.72C407.54 153.76 407.05 155.68 406.52 157.79L406.06 159.62C405.5 161.85 404.71 170.46 405.06 172.69C405.39 174.83 405.41 177.01 406.17 179.08C407.39 182.37 409.17 186.01 412.61 187.34C415.94 188.63 415.06 188.62 419.21 188.55C423.71 188.47 428.36 184.5 430.96 181.01C431.34 180.5 431.42 179.68 432.3 179.74C432.56 181.06 431.59 186.99 431.92 187.43C432 187.54 432.25 187.73 432.52 187.73L444.48 187.69C445.28 187.69 445.43 187.08 445.51 186.52L446.09 182.15L446.58 179.14L447.27 174.73L447.74 172.28L448.69 167.21L450.61 156.91L452.21 148.76C452.47 147.43 452.66 146.15 452.91 144.83L453.9 139.65L454.68 135.82C454.87 134.9 454.82 134.09 455.07 133.18C456.09 129.44 456.19 126.6 457.15 122.98C456.7 124.67 459.45 110.02 459.3 112.3L459.44 110.22C459.5 109.29 460.05 108.44 459.72 107.41H459.71ZM435.34 150.88C435.15 152.05 435.01 153.13 434.79 154.28L433.68 159.95L432.42 166.81L431.26 170.07C430.84 171.26 429.82 172.19 429.13 173.21C428.43 174.25 427.38 174.85 426.35 174.96C425.01 175.1 423.8 174.61 422.99 173.69C422.04 172.61 422.08 171.47 421.77 170.24C421.42 168.85 421.34 167.73 421.53 166.28C421.86 163.74 422.45 158.39 423.4 156.08C423.85 154.98 423.87 153.73 424.44 152.72C424.83 152.02 424.9 151.3 425.2 150.67C426.58 147.78 428.8 143.67 431.97 142.56C432.89 142.24 434.16 142.17 435.11 142.29C435.51 142.34 436 143.09 436.57 143.2C436.48 145.74 435.77 148.17 435.34 150.89V150.88Z" fill="#BE1622"/>
<path d="M231.7 146.71C231.64 145.26 231.8 143.86 231.65 142.44C231.25 138.65 229.79 134.02 226.46 131.76C225 130.77 223.6 130.08 221.8 129.87C218.1 129.45 214.75 130.5 211.81 132.55C208.94 134.55 209.15 135.52 206.57 137.88C206.39 136.36 206.86 135.07 207.14 133.67L208.41 127.31L211.94 110.26C212.14 109.3 212.55 108.47 212.13 107.41L196.8 107.39C196.5 107.39 195.95 107.62 195.92 107.88C195.97 107.46 194.02 117.26 193.89 117.93L193.05 122.2L191.91 128.43L190.21 137.41C189.99 138.56 189.61 139.64 189.45 140.77C189.17 142.64 188.8 144.27 188.43 146.24L186.13 158.5L185.67 160.61L184.54 166.57C183.27 173.27 181.93 183.06 189.42 186.72C191.05 187.51 192.83 188.15 194.69 188.33C202.28 189.1 209.29 188.11 215.59 183.55C219.54 180.69 222.87 177.13 225.29 172.78C225.87 171.74 228.51 166.82 228.4 166.37L228.28 165.84C228.26 165.76 228.43 165.76 228.71 165.74L229.94 161.75C230.26 160.7 230.38 159.65 230.67 158.58C230.99 157.42 231.06 156.2 231.25 154.99C231.69 152.19 231.83 149.53 231.72 146.68L231.7 146.71ZM213.82 159.2C213.54 160.4 213.16 161.56 213.13 162.82C212.55 163.44 212.58 164.21 212.39 164.94L211.9 166.78C211.28 169.12 208.43 174.88 205.53 176.23C204.9 176.52 203.95 176.69 203.32 176.64C199.1 176.31 199.93 170.27 200.4 167.42L200.75 165.28C201.27 162.12 202.22 159.16 202.79 156.03C203.52 151.98 205.33 145.95 209.57 144.23C210.58 143.82 212.15 143.96 213.04 144.73C214.54 146.02 214.57 147.9 214.58 149.72C214.6 152.98 214.57 156.03 213.81 159.21L213.82 159.2Z" fill="#BE1622"/>
<path d="M404.27 132.11C400.06 130.73 395.79 130.28 391.39 129.89C387.18 129.52 383.18 129.91 379.04 130.95C373.42 132.36 368.52 135.5 364.76 139.84C363.49 141.3 362.37 142.62 361.35 144.28C359.91 146.62 358.15 150.15 357.35 152.81L355.9 157.58C355.35 159.39 355.12 161.28 354.84 163.17C354.15 167.91 353.9 172.55 354.8 177.24C355.06 178.59 355.56 179.82 355.98 181.11C356.22 181.83 356.71 182.42 357.08 183.08C358.63 185.81 361.3 187.94 364.46 188.38C369.99 189.15 373.22 187.56 377.25 184.01C378.84 182.61 380.07 180.96 381.17 179.15C381.34 178.86 381.76 178.79 381.96 178.79C382.25 178.79 382.36 179.21 382.34 179.58C382.15 182.3 381.9 184.89 382.12 187.7L396.25 187.74C396.35 184.09 396.38 180.73 396.77 177.25L397.64 169.41L398.55 163.58L400.07 155.89L402.53 143.51C402.73 142.52 402.78 141.45 403.05 140.54C403.44 139.19 403.97 138.03 403.91 136.53C403.88 135.85 405.18 132.41 404.28 132.12L404.27 132.11ZM384.98 149.4L384.21 153.79L383.6 156.63C383.23 158.35 382.69 161.63 382.41 162.63L381.13 167.1C380.92 167.83 380.42 168.48 380.32 169.22C380.18 170.23 378.19 173.11 377.48 173.79C375.7 175.49 372.86 175.39 371.53 173.31C371.09 172.62 371.13 171.76 370.92 171.07C370.09 168.23 370.92 164.26 370.94 163.77L371.01 162.05C371.04 161.28 372.97 154.18 373.55 152.7L374.39 150.58C374.9 149.31 375.74 148.21 376.31 146.98C376.64 146.28 377.2 145.84 377.6 145.28C379.06 143.19 381.48 141.75 384.17 142.11C384.67 142.18 385.9 142.01 386.11 142.68C386.24 144.18 385.28 147.69 384.97 149.42L384.98 149.4Z" fill="#BE1622"/>
<path d="M279.29 141.71C278.4 138.05 276.56 135.07 273.55 132.8C269.08 129.43 262.99 129.28 257.7 130.45C255.41 130.96 251.57 132.48 249.74 134C248.57 134.96 247.04 135.61 246.22 136.96C245.87 137.53 245.28 137.73 244.9 138.19C243.5 139.9 242.24 141.72 241.06 143.59C240.03 145.22 239.39 146.87 238.67 148.61L237.92 150.44C236.96 152.78 236.05 157.63 235.6 160.19C235.41 161.25 235.46 162.26 235.34 163.34C234.79 168.57 235.54 175.37 238.29 179.87C242.02 185.99 248.52 188.57 255.52 188.39C257.95 188.33 260.26 188.39 262.65 188.08L264.5 187.84C267.45 187.45 268.46 186.85 271.32 186.31C271.64 186.25 271.68 185.49 272.43 185.83C272.79 186 273.21 185.54 273.44 185.31C273.69 185.06 272.6 174.73 272.88 172.96L267.01 174.8C263.06 176.04 255.98 176.13 252.65 172.29C251.53 171.01 250.86 169.45 251.33 167.8C258.36 167.84 265.78 167.38 271.55 163.48C273.04 162.47 274.33 161.54 275.44 160.14C276.41 158.92 277.28 157.79 277.91 156.33C279.91 151.67 280.49 146.62 279.29 141.7V141.71ZM263.37 152.48C260.57 155.02 256.61 155.9 252.91 155.33C252.46 154.96 253.01 154.11 253.07 153.69C253.49 150.74 254.53 148.05 256.48 145.84C257.85 144.28 259.59 142.95 261.64 143.13C264.02 143.34 265.19 145 265.32 147.19C265.44 149.18 265.05 150.97 263.37 152.49V152.48Z" fill="#BE1622"/>
</svg>