<svg xmlns="http://www.w3.org/2000/svg" fill="none" viewBox="46.44 93.48 197.95 178.79">
<path d="M238.03 185.92V253.04C239.17 253.23 240.12 253.05 241.25 253.11C242.98 253.2 244.4 254.48 244.39 256.29L244.37 269.1C244.37 270.83 243.08 272.27 241.12 272.27H49.7399C47.7699 272.27 46.4899 270.83 46.4799 269.1L46.4399 256.29C46.5399 254.51 47.8099 253.17 49.6199 253.15L52.8299 253.01V96.75C52.8299 94.84 54.1799 93.48 56.1099 93.48H212.39C214.33 93.48 215.64 94.91 215.64 96.65V112.65C215.64 114.44 214.23 115.8 212.5 115.82L206.08 115.87V166.89L212.49 166.94C214.24 166.99 215.64 168.31 215.64 170.1L215.66 182.88L234.82 182.91C236.48 182.91 237.75 183.97 238.01 185.94L238.03 185.92ZM68.8099 169.87V112.67C68.8099 110.84 70.1599 109.45 72.0799 109.45H209.26V99.86H59.2499V182.87H209.27V173.3H72.0799C70.1399 173.3 68.8099 171.95 68.8099 169.87ZM148.85 128.58C150.65 128.86 151.82 130.1 151.82 131.8V166.9H161.41V131.8C161.42 130 162.83 128.62 164.6 128.62H186.97C188.73 128.62 190.14 130.01 190.14 131.8V166.9H199.74V115.83H75.2199V166.9H84.7899V131.79C84.7999 129.99 86.2099 128.61 87.9799 128.61H110.35C112.11 128.61 113.52 130 113.52 131.79V166.89H123.11V131.79C123.12 129.99 124.53 128.61 126.3 128.61L148.87 128.58H148.85ZM107.12 134.98H91.1599V166.91H107.12V134.98ZM145.44 134.98H129.48V166.91H145.44V134.98ZM183.75 134.98H167.79V166.91H183.75V134.98ZM142.25 253.04V205.25C142.37 203.44 143.54 202.04 145.49 202.04H218.83C220.69 202.04 222.06 203.44 222.06 205.25V253.11H231.66L231.64 189.27H59.2499L59.2299 253.11H68.8199L68.8299 205.26C68.8299 203.45 70.1999 202.06 72.0499 202.06H129.45C131.29 202.06 132.66 203.46 132.67 205.26V253.12L142.27 253.05L142.25 253.04ZM97.5399 208.42H75.1899V253.12H97.5399V208.42ZM126.28 208.42H103.93V253.12H126.28V208.42ZM215.68 208.42H148.63V214.81H215.68V208.42ZM215.68 221.19H148.63V227.58H215.68V221.19ZM215.68 233.96H148.63V240.35H215.68V233.96ZM215.68 246.73H148.63V253.12H215.68V246.73ZM238.03 259.5H52.8399V265.89H238.03V259.5Z" fill="#EFEFEF"/>
</svg>