<svg xmlns="http://www.w3.org/2000/svg" fill="none" viewBox="40.72 71.44 222.62 222.87">
<path d="M148.32 294.31H74.1002L74.1302 272.12L81.5002 271.83L81.5202 213.13C81.5202 211.54 82.1702 210.41 83.2502 209.42L96.3602 196.3L96.3902 127.33L45.9902 127.38C43.6202 127.38 42.1402 126.82 40.7202 125.17V107.34C41.4102 107.18 41.5102 106.2 42.2602 105.77L102.79 71.67C108.63 72.42 114.2 70.61 119.83 71.94L260.33 105.13C262.27 105.59 263.31 107.3 263.31 109.06L263.33 123.45C263.27 125.7 261.71 127.33 259.41 127.33L229.95 127.4L229.92 179.31C229.92 181.57 228.02 182.98 225.99 182.99L218.89 183.02C218.76 185.72 218.75 188.11 218.91 190.94C224.86 192.56 228.92 197.47 229.73 202.93C230.67 209.3 227.71 214.91 222.24 218.25L249.98 245.99L259.46 246.08C261.65 246.1 263.34 247.65 263.34 249.95V282.98C263.34 285.22 261.73 286.87 259.37 286.87H170.8C168.48 286.87 166.9 285.17 166.9 282.98V249.96C166.9 247.7 168.57 246.11 170.71 246.09L180.24 246.01L207.99 218.23C201.8 214.66 199.37 208.17 200.5 201.52L207.64 201.6L207.75 205.79C207.86 209.97 211.64 212.89 215.66 212.62C219.56 212.36 222.63 208.96 222.49 205C222.36 201.15 219.3 198.02 215.26 197.85C212.98 197.75 211.42 196.13 211.4 193.85L211.31 183.03L204.2 182.98C201.94 182.95 200.32 181.41 200.29 179.05L200.27 127.34L126.09 127.36V196.17L139.36 209.57C140.49 210.59 140.92 211.85 140.92 213.48V271.84L148.33 272.11V294.29L148.32 294.31ZM114.9 79.12H107.5V105.08H114.9V79.12ZM222.03 105.09C223.31 104.81 223.89 105.07 224.69 104.39L122.37 80.12L122.33 105.07L222.02 105.09H222.03ZM100.1 105.04L99.9202 81.83L59.3202 104.87L100.1 105.04ZM96.3602 112.52H48.1202V119.94H96.3602V112.52ZM118.58 117.58C118.64 115.77 118.69 114.26 118.5 112.54H103.87C103.71 115.07 103.72 117.33 103.85 119.88L115.51 119.99C116.93 120 118.51 119.39 118.57 117.59L118.58 117.58ZM200.25 112.52H126.06V119.94H200.25V112.52ZM222.5 112.52H207.67V119.94H222.5V112.52ZM255.91 112.52H229.94V119.94H255.91V112.52ZM109.39 127.54C107.12 127.15 105.68 127.37 103.85 127.42C103.83 129.32 103.52 130.92 104.02 132.86L109.39 127.53V127.54ZM222.5 127.35H207.67V160.73H222.5V127.35ZM118.54 154.97L118.45 129.23L105.38 142.18L118.54 154.97ZM117.02 164.37L103.9 151.45L103.83 177.6L117.02 164.37ZM222.5 168.17H207.67V175.59H222.5V168.17ZM118.53 199.68L118.47 173.67L105.32 186.67L118.53 199.67V199.68ZM117.04 208.94L103.88 195.86V221.97L117.04 208.94ZM89.0002 271.99L96.3602 271.97V207.09C93.5602 209.39 91.3702 211.85 88.9402 214.38L89.0002 271.99ZM133.47 271.68V214.36C130.98 212.02 129.21 209.48 126.12 207.47L126.07 271.82C128.74 272.09 131.01 272.37 133.47 271.68ZM118.53 244.1L118.44 218.32L105.38 231.27L118.53 244.1ZM239.26 245.94L215.07 221.64L190.82 246.04L239.26 245.94ZM117.01 253.45L103.89 240.55L103.83 266.66L117.01 253.45ZM255.91 253.51H174.29V279.45H255.91V253.51ZM118.65 271.85L118.44 262.71L109.53 271.72C112.83 272.31 115.56 272.1 118.65 271.85ZM140.88 279.48H81.5302V286.9H140.88V279.48Z" fill="#EFEFEF"/>
</svg>