<svg width="305" height="366" viewBox="0 0 305 366" fill="none" xmlns="http://www.w3.org/2000/svg">
<path d="M97.16 293.64C96.16 295.01 96.85 296.39 96.65 297.81C96.33 300.13 94.62 301.59 92.47 301.48C90.32 301.37 88.75 299.72 88.75 297.38V289.92C88.75 287.6 90.4 285.71 92.95 285.71H203.28C205.83 285.71 207.43 287.68 207.38 289.71C207.32 292.04 205.63 293.63 202.99 293.63H97.14L97.16 293.64Z" fill="#EFEFEF"/>
<path d="M270.8 113.94V292.6C270.19 292.93 270.22 293.46 269.81 294.36C268.21 297.83 264.53 301.43 260.12 301.44C248.44 301.47 237.04 301.96 225.45 301.26C218.58 300.85 214.47 293.43 215.64 287.48C216.91 281.05 222.69 277.1 229.33 277.93C232.36 272.7 237.6 269.88 243.21 269.91C248.83 269.94 253.95 272.85 256.89 277.94C259.04 277.64 260.81 278.04 262.89 278.36V119.54L219.41 119.49C216.92 119.49 215.39 117.41 215.47 115.39C215.56 113.14 217.33 111.59 219.83 111.59L267.04 111.62C268.85 111.62 269.66 113.1 270.81 113.94H270.8ZM259.1 293.56C262.05 293.56 263.47 290.46 262.47 288.12C261.7 286.33 259.23 285.16 257.04 286.25C249.18 290.13 252.56 278.06 243.19 277.86C235.99 277.71 236.11 285.15 233.3 286.52C229.94 288.15 227.88 283.93 224.71 286.79C223.44 287.94 223.03 289.69 223.71 291.25C224.27 292.52 225.69 293.64 227.41 293.64L259.11 293.56H259.1Z" fill="#EFEFEF"/>
<path d="M243.24 167H227.65C225.22 167.01 223.31 165.34 223.31 162.86L223.33 139.33C223.33 137.13 225.1 135.39 227.27 135.39L242.94 135.36C245.39 135.36 247.06 137.27 247.06 139.7L247.04 162.89C247.04 165.06 245.56 166.74 243.24 167ZM239.12 143.26H231.23V159.08H239.12V143.26Z" fill="#EFEFEF"/>
<path d="M243.22 261.92H226.74C224.8 261.92 223.32 259.84 223.32 257.93V234.37C223.32 231.91 225.29 230.32 227.65 230.33L242.98 230.36C245.17 230.36 247.02 232.04 247.02 234.33V257.99C247.02 260 245.46 261.94 243.21 261.94L243.22 261.92ZM239.12 238.25H231.23V254.05H239.12V238.25Z" fill="#EFEFEF"/>
<path d="M247.08 210C247.08 212.71 245.34 214.49 242.88 214.49H227.31C225.13 214.49 223.36 212.85 223.36 210.56L223.32 187.06C223.32 184.54 225.2 182.83 227.66 182.84L243 182.87C245.36 182.87 247.05 184.64 247.05 187.02L247.08 210.01V210ZM239.12 190.75H231.23V206.58H239.12V190.75Z" fill="#EFEFEF"/>
<path d="M152.07 261.93C154.219 261.93 155.96 260.188 155.96 258.04C155.96 255.892 154.219 254.15 152.07 254.15C149.922 254.15 148.18 255.892 148.18 258.04C148.18 260.188 149.922 261.93 152.07 261.93Z" fill="#EFEFEF"/>
<path d="M205.41 64.1101L207.48 67.2301V273.59C207.48 276.24 205.49 277.82 203.36 277.73C201.28 277.63 199.67 276.15 199.56 273.62L199.54 72.0501H104.6L104.58 273.17C104.67 275.87 103.08 277.62 100.8 277.74C98.6902 277.85 96.6602 276.28 96.6602 273.6V67.2301L98.7402 64.1101H205.41Z" fill="#EFEFEF"/>
<path d="M167.9 238.37L136.26 238.29L136.23 274.16C135.87 276.4 134.29 277.67 132.32 277.77C130.38 277.87 128.39 276.3 128.38 273.96L128.27 238.35L116.4 238.19C114.05 238.16 112.46 236.18 112.57 234.12C112.69 231.92 114.37 230.31 116.88 230.31L187.71 230.34C190.04 230.34 191.48 232.24 191.58 234.12C191.68 236 190.32 238.09 188.14 238.13L175.87 238.35L175.81 273.58C175.81 275.95 174.19 277.62 172.23 277.73C169.87 277.86 168.04 276.27 167.91 273.71V238.36L167.9 238.37Z" fill="#EFEFEF"/>
<path d="M140.19 119.51H124.7C122.36 119.51 120.42 117.9 120.42 115.48V92.0402C120.41 89.5702 122.25 87.8502 124.68 87.8602H140.02C142.33 87.8802 144.12 89.5802 144.13 91.9302L144.16 115.12C144.16 117.48 142.74 119.28 140.19 119.51ZM136.23 95.7902H128.35V111.6H136.23V95.7902Z" fill="#EFEFEF"/>
<path d="M179.68 119.48H164.17C161.65 119.5 159.97 117.62 159.98 115.13L160.01 91.9301C160.01 89.5801 161.81 87.8701 164.12 87.8701L179.46 87.8501C181.89 87.8501 183.74 89.5601 183.73 92.0401V115.49C183.72 117.66 182.05 119.48 179.68 119.48ZM175.8 95.7901H167.92V111.6H175.8V95.7901Z" fill="#EFEFEF"/>
<path d="M140.28 167H124.7C122.24 167 120.41 165.27 120.41 162.79L120.43 139.35C120.43 137.15 122.14 135.38 124.33 135.38L139.99 135.35C142.47 135.35 144.17 137.23 144.17 139.7L144.14 162.89C144.14 165.08 142.63 166.75 140.28 167ZM136.26 158.73L136.15 143.36C133.31 143.2 131.04 143.17 128.35 143.4L128.46 159.04C131.31 158.97 133.47 159.47 136.27 158.73H136.26Z" fill="#EFEFEF"/>
<path d="M179.71 166.97L164.12 166.99C161.8 166.99 160.01 165.24 160.01 162.9L159.99 139.7C159.99 137.23 161.69 135.35 164.17 135.35L179.83 135.38C182.01 135.38 183.72 137.16 183.72 139.35L183.74 162.8C183.74 165.01 182.2 166.96 179.71 166.97ZM175.84 158.77L175.77 143.38C172.99 143.27 170.52 142.98 167.89 143.54L168.01 158.91C170.83 159.1 173.23 159.36 175.84 158.77Z" fill="#EFEFEF"/>
<path d="M144.17 209.99C144.17 212.73 142.41 214.5 139.92 214.49L124.35 214.46C122.23 214.46 120.43 212.71 120.43 210.54V186.72C120.44 184.37 122.45 182.83 124.68 182.84H140.03C142.41 182.86 144.14 184.61 144.14 187.01L144.17 210V209.99ZM136.23 190.75H128.35V206.58H136.23V190.75Z" fill="#EFEFEF"/>
<path d="M179.99 214.43L164.22 214.5C161.75 214.51 159.99 212.69 159.99 210.2V187C160 184.6 161.74 182.85 164.11 182.85L179.46 182.83C181.68 182.83 183.69 184.37 183.7 186.71V210.54C183.71 212.5 182.14 214.42 179.99 214.43ZM175.8 190.75H167.92V206.58H175.8V190.75Z" fill="#EFEFEF"/>
<path d="M49.2298 297.64L49.0998 277.4C40.9998 275.52 34.9398 269.41 33.6198 261.06C33.0298 257.3 33.1798 253.21 33.5998 249.38C34.8098 238.3 37.5398 206.73 53.0498 206.61C70.1598 206.48 72.4898 245 72.8898 257.03C73.2098 266.82 66.9398 275.15 57.2098 277.39L57.0498 297.68C57.0298 299.85 55.2998 301.35 53.4898 301.49C51.3798 301.66 49.2498 300.25 49.2298 297.64ZM64.9098 258.21C64.9598 247.53 63.7398 237.53 61.1298 227.58C60.1698 223.92 57.2598 214.51 53.0698 214.6C48.9698 214.69 46.2298 223.71 45.2198 227.34C42.4898 237.18 41.5498 247.1 41.2798 257.26C41.0898 264.03 46.0498 269.55 52.6598 269.83C58.9598 270.09 64.8898 265.19 64.9198 258.21H64.9098Z" fill="#EFEFEF"/>
<path d="M41.2699 119.53V194.37C41.2599 196.95 39.4899 198.59 37.2999 198.58C35.1499 198.58 33.3599 196.95 33.3599 194.37L33.3799 115.64C33.3799 113.22 35.2799 111.61 37.5699 111.61H84.7799C87.1099 111.63 88.6299 113.47 88.6999 115.37C88.7799 117.57 87.2199 119.32 84.7699 119.51L41.2799 119.53H41.2699Z" fill="#EFEFEF"/>
<path d="M76.7598 166.98H61.1598C58.8598 166.98 57.1098 165.21 57.1098 162.9L57.0898 139.7C57.0898 137.26 58.7598 135.35 61.2098 135.36L76.8798 135.39C79.0498 135.39 80.8198 137.13 80.8198 139.33L80.8398 162.87C80.8398 165.08 79.2198 166.99 76.7598 166.99V166.98ZM72.9198 143.26H65.0298V159.08H72.9198V143.26Z" fill="#EFEFEF"/>
<path d="M72.9096 190.87L65.3496 190.74C64.6096 192.92 65.9996 198.29 61.3896 198.59C58.9796 198.74 57.0996 197.01 57.0996 194.45V187C57.0996 184.64 58.7696 182.87 61.1596 182.87L76.4996 182.84C78.9596 182.84 80.8396 184.54 80.8396 187.06L80.7996 210.57C80.7996 213.01 78.8096 214.53 76.7696 214.44C74.5296 214.34 72.9296 212.62 72.9296 210.21V190.87H72.9096Z" fill="#EFEFEF"/>
</svg>
