<svg width="305" height="366" viewBox="0 0 305 366" fill="none" xmlns="http://www.w3.org/2000/svg">
<path d="M35.0801 261.44V243.17C35.8001 243.06 36.1601 242.23 36.9001 241.86L53.5701 233.44C56.1501 232.14 58.0501 229.94 58.9301 227.1L71.8401 185.32C72.3101 183.8 73.7501 182.91 75.2301 182.91L82.6001 182.89C88.6901 182.87 93.5301 187.68 93.5301 193.85V230.36L103.03 230.29C104.78 226.04 107.28 222.68 110.75 219.35C104.83 217.62 101.19 212.67 102.11 206.71L106.52 175.61C107.75 166.92 114.02 160.5 122.8 159.32L122.7 121.71C122.68 115.17 127.08 109.98 133.51 109.83C139.48 109.69 144.67 114.4 144.68 120.78L144.75 156.19L159.31 154.11L159.27 116.46C153.87 114.43 151.14 109.09 152.26 103.81C153.35 98.6399 157.81 95.1699 163.48 95.1699H250.12C255.93 95.1699 260.45 98.8099 261.41 104.18C262.37 109.51 259.42 114.48 254.29 116.51L254.31 168.54C258.8 169.81 261.87 173.11 262.61 177.59L267.44 206.6C268.42 212.5 264.85 217.59 258.92 219.28C266.58 226.36 270.27 236.15 268.55 246.06C266.09 260.27 254.14 270.55 239.62 270.55H130.14C118.09 270.55 107.69 263.4 103.02 252.4H91.9501C88.8401 259.31 82.2801 263.29 74.7901 263.27L37.8601 263.19L35.0901 261.43L35.0801 261.44ZM206.79 178.94C207.06 172.82 211.8 168.29 217.77 168.29H246.99V117.15L236 117.11C233.77 117.11 232.29 115.26 232.4 113.26C232.49 111.49 233.91 109.86 236.01 109.85L250.55 109.81C252.62 109.81 254.17 108.24 254.25 106.31C254.32 104.7 253.05 102.54 250.86 102.54H162.73C160.55 102.54 159.26 104.68 159.34 106.33C159.42 107.93 160.71 109.79 162.71 109.79L221.37 109.85C223.7 109.85 225.12 111.73 225.02 113.7C224.93 115.43 223.55 117.12 221.37 117.12H166.59L166.61 193.7C166.61 195.97 168.25 197.37 170.36 197.51L203.03 197.49C205.15 197.49 206.77 195.83 206.77 193.77V178.94H206.79ZM137.41 157.19L137.33 120.52C137.33 118.44 135.26 117.06 133.57 117.16C131.96 117.25 130.12 118.58 130.12 120.52L130.06 158.27C132.72 157.96 134.89 157.75 137.41 157.18V157.19ZM251.69 175.6H217.85C215.72 175.59 214.11 177.25 214.11 179.32L214.09 193.87C214.08 199.96 209.29 204.8 203.13 204.8L170.26 204.82C164.11 204.74 159.31 200.02 159.31 193.85L159.29 161.58L122.84 166.81C118.18 167.48 114.88 171.19 113.91 175.64L109.33 208C109.03 210.14 110.66 212.12 112.97 212.12H256.77C259.15 212.11 260.52 209.74 260.19 207.75L255.37 178.81C255.08 177.08 253.75 175.61 251.7 175.61L251.69 175.6ZM75.0501 255.96C81.1301 255.96 86.1501 251.36 86.1601 245.32L86.2301 193.97C86.2301 191.8 84.5301 190.25 82.5101 190.21C80.9501 190.18 79.6201 190.07 77.9501 190.3L66.0201 229.01C64.5001 233.94 61.2801 237.79 56.7301 240.08L42.4301 247.27L42.3901 255.96H75.0501ZM239.8 263.23C252.28 263.23 261.65 252.95 261.56 241.18C261.47 229.27 251.85 219.43 239.58 219.44L129.77 219.48C117.51 219.48 108.08 229.75 108.17 241.51C108.27 253.43 117.88 263.26 130.15 263.26L239.79 263.23H239.8ZM101.01 237.69H93.5301V245H101.01V237.69Z" fill="#EFEFEF"/>
<path d="M177.56 186.49L195.84 186.56V153.67C195.94 151.53 197.46 150.15 199.28 150.05C201.22 149.94 203.13 151.38 203.13 153.67V190.19C203.13 192.23 201.51 193.83 199.5 193.83H173.9C171.9 193.83 170.27 192.26 170.27 190.15V124.47C170.27 122.35 171.89 120.8 173.91 120.8H199.5C201.52 120.79 203.13 122.42 203.12 124.4V139.06C203.12 141.16 201.45 142.57 199.71 142.67C197.67 142.78 195.95 141.3 195.84 139.07V128.08H177.56V186.48V186.49Z" fill="#EFEFEF"/>
<path d="M243.32 160.74C243.32 163.13 241.72 164.49 239.67 164.63L210.44 164.61C208.42 164.61 206.8 163.01 206.8 160.97V124.45C206.8 122.4 208.41 120.81 210.44 120.81H239.68C241.7 120.81 243.31 122.41 243.31 124.45V160.75L243.32 160.74ZM236.02 128.09H214.1V157.32H236.02V128.09Z" fill="#EFEFEF"/>
<path d="M225.21 237.71C226.27 236.44 226.36 235.3 226.92 234.07L214.07 234.03C211.99 234.03 210.57 232.38 210.47 230.61C210.36 228.65 211.83 226.77 214.09 226.77H239.68C247.85 226.76 254.18 233.31 254.27 241.14C254.37 249.16 248.06 255.96 239.62 255.96H130.14C121.86 255.96 115.6 249.39 115.48 241.58C115.36 233.55 121.7 226.76 130.12 226.76H199.46C201.66 226.76 203.02 228.45 203.11 230.18C203.21 232.14 201.8 234.04 199.47 234.04L142.87 234.06C143.24 235.34 143.68 236.36 144.37 237.7H225.23L225.21 237.71ZM136.17 237.56C133.73 233.51 128.53 233.04 125.29 235.87C121.95 238.77 121.95 243.92 125.29 246.82C128.54 249.65 133.71 249.19 136.18 245.13C133.96 244.82 132.1 245.11 130.05 245C127.82 244.88 126.34 243.17 126.45 241.13C126.71 236.27 132.85 238.15 136.17 237.56ZM246.95 241.35C246.95 237.33 243.69 234.07 239.67 234.07C235.65 234.07 232.39 237.33 232.39 241.35C232.39 245.37 235.65 248.63 239.67 248.63C243.69 248.63 246.95 245.37 246.95 241.35ZM226.81 248.65C226.51 247.08 225.99 246.26 225.37 245H144.35C143.68 246.34 143.2 247.37 142.87 248.65H226.81Z" fill="#EFEFEF"/>
</svg>
