<svg xmlns="http://www.w3.org/2000/svg" fill="none" viewBox="40.04 70.98 223.94 223.8">
<path d="M80.26 70.98C80.45 71.35 80.83 71.55 81.35 71.75C85.77 73.46 88.55 77.52 88.54 82.38L88.56 123.19L184.77 123.22L231.11 76.79C233.65 74.25 235.82 72.26 238.94 70.98H244.62C245.55 72.14 247.37 72.08 248.53 73.24L260.93 85.66C265.21 89.94 264.87 96.78 260.64 101.06L238.95 122.99C244.01 123.46 247.76 123.11 252.71 123.19C257.28 123.27 263.72 126.98 263.72 132.74L263.79 284.7C263.79 289.69 258.74 294.73 253.74 294.73L66.55 294.78C53.51 292.32 43.48 283.44 40.68 270.65C40.56 270.09 40.37 269.66 40.04 269.45V95.9C40.26 95.76 40.48 95.51 40.57 95.04C43.02 83.13 52.18 73.96 64.09 71.52C64.56 71.42 64.81 71.2 64.95 70.98H80.25H80.26ZM77.47 235.11C79.52 234.83 81.06 233.52 81.06 231.31V82.44C81.06 80.11 79.57 78.5 77.48 78.49L69.94 78.46C57.56 78.41 47.52 88.43 47.52 100.95L47.54 244.84C54 238.59 61.31 235.1 69.76 235.12H77.48L77.47 235.11ZM255.31 90.46L244.37 79.54C240.16 75.99 236.95 82.15 233.53 85.13L249.71 101.31C252.68 97.93 258.84 94.66 255.3 90.46H255.31ZM228.2 90.37L222.68 95.89L238.96 112.16L244.48 106.64L228.2 90.37ZM217.42 101.16L176.77 141.81L193.05 158.09L233.7 117.44L217.42 101.16ZM215.38 194.5L215.33 250.17C215.33 254.33 212.02 257.47 207.87 257.48L133.64 257.51C131.12 257.51 129.53 255.78 129.6 253.56C129.67 251.57 131.33 249.96 133.6 250.04L159.41 249.97V220.24L118.42 220.22L118.39 272.39C118.29 274.69 116.5 276.19 114.58 276.12C112.39 276.04 110.91 274.45 110.91 272V171.89C107.03 171.48 103.34 171.89 99.54 171.68C97.17 171.55 95.75 169.47 96.06 167.41C96.38 165.27 98.03 164.23 100.41 164.23H163.33C163.3 162.49 163.1 161.16 163.28 159.63L164.63 147.82C165.04 144.23 166.67 141.07 169.36 138.68C171.73 136 174.53 133.91 176.72 130.72L88.57 130.68L88.52 231.36C88.52 237.64 83.7 242.27 77.67 242.61H70.6C57.87 242.57 47.14 252.61 47.6 265.46C48.06 278.31 58.5 287.35 70.88 287.35L252.67 287.33C254.74 287.33 256.38 285.7 256.38 283.63L256.4 134.29C256.13 132.1 254.62 130.7 252.51 130.7L231.09 130.74L195.85 165.96C193.29 168.52 190.19 169.87 186.68 170.25L173.76 171.71L118.41 171.73V212.75H207.88V194.71C207.87 192.27 209.27 190.39 211.61 190.41C213.63 190.43 215.37 191.83 215.37 194.52L215.38 194.5ZM173.59 164.26L186.79 162.63L172.32 148.1L170.65 161.07C170.5 162.83 171.56 164.3 173.59 164.26ZM207.91 220.2H166.89V250.02H207.91V220.2Z" fill="#EFEFEF"/>
</svg>