<svg width="305" height="366" viewBox="0 0 305 366" fill="none" xmlns="http://www.w3.org/2000/svg">
<path d="M92.7898 67.9299C92.9498 68.1299 93.1998 68.4099 93.6098 68.5199C98.3998 69.8399 102.21 72.6899 104.9 77.0499L176.23 117.8C184.15 122.32 189.01 130.61 189.04 139.74L189.15 186.48C194.02 186.75 197.69 189.4 199.56 193.88L241.13 193.99C247.79 194.01 252.45 199.64 252.12 206.16C252.07 207.23 251.92 208.64 252.36 209.52C256.94 211.42 259.55 215.55 259.55 220.54V253.67C264.37 258.87 264.65 261.53 266.92 267.21V276.19C264.84 286.28 254.72 297.36 244.27 297.36H141.07C131.3 297.37 123.33 288.45 120.46 281.13C116.51 271.04 119.27 261.13 125.96 253.68L126.2 245.16L135.98 195.88C137.16 189.96 141.95 186.29 148.28 186.49L148.18 160.27C144.08 158.53 140.23 155.82 138.68 152.25C136.57 147.38 136.73 142.79 139.26 138.26L101.45 100.5C100.09 100.63 99.3498 102.13 99.1398 103.34L82.2098 198.38C89.9098 204.74 91.1698 215.34 85.3598 223.34L88.0298 247.49C88.5598 252.31 90.8798 256.56 94.6098 259.57L107.5 269.98L107.57 290.15L114.92 290.47C114.94 293.1 115.1 295.21 114.85 297.81L72.3398 297.4C66.5898 297.35 61.4898 293.92 57.7498 290.18L46.4698 278.92C34.6498 267.12 33.9498 248.21 44.6498 235.67L55.3298 223.15C51.6698 217.6 50.8198 211.16 53.6698 204.73C55.8698 199.78 60.7098 195.68 66.8598 194.27L70.4598 86.3899C70.7298 78.1699 75.6498 71.4399 83.2698 68.8899C84.0498 68.6299 84.8198 68.5999 85.1298 67.9199H92.7598L92.7898 67.9299ZM100.09 86.4599C100.09 80.3499 95.1298 75.3899 89.0198 75.3899C82.9098 75.3899 77.9498 80.3499 77.9498 86.4599C77.9498 92.5699 82.9098 97.5299 89.0198 97.5299C95.1298 97.5299 100.09 92.5699 100.09 86.4599ZM155.88 186.55L181.68 186.5L181.65 139.54C181.32 132.54 177.57 127.05 171.56 123.63L107.68 87.2799C106.99 90.0799 106.83 91.9799 105.76 94.2699L144.57 133.04C152.75 128.32 162.42 132.18 165.69 140.15C169.1 148.48 164.55 157.59 155.72 160.1L155.88 186.56V186.55ZM91.3998 105.05C85.5598 105.19 81.4998 103.89 77.3198 100.89L74.7698 195.14L91.3998 105.05ZM159.4 145.76C159.4 141.69 156.1 138.39 152.03 138.39C147.96 138.39 144.66 141.69 144.66 145.76C144.66 149.83 147.96 153.13 152.03 153.13C156.1 153.13 159.4 149.83 159.4 145.76ZM144.9 245.84L192.77 245.82L192.72 197.25C192.72 195.27 190.79 194.23 189.17 193.97L147.57 193.95C145.41 193.95 143.74 195.03 143.31 197.22L133.55 246.08C133.39 246.89 133.42 247.64 133.97 248.18C137.63 246.58 141.02 245.84 144.91 245.84H144.9ZM81.5598 212.48C81.5598 206.37 76.6098 201.42 70.4998 201.42C64.3898 201.42 59.4398 206.37 59.4398 212.48C59.4398 218.59 64.3898 223.54 70.4998 223.54C76.6098 223.54 81.5598 218.59 81.5598 212.48ZM252.03 219.65C252.03 217.44 249.9 216.21 248.08 216.21L215.1 216.15L215.02 208.67L244.45 208.74C244.85 207.15 244.7 206.1 244.6 204.8C244.45 202.93 242.94 201.38 240.87 201.38L200.4 201.4C200.07 203.99 200.15 206.12 200.36 208.59L207.51 208.82C207.69 211.39 207.76 213.81 207.46 216.16L200.24 216.36V245.81L240.85 245.84C244.75 245.84 248.01 246.65 252.06 248.28L252.03 219.65ZM92.7098 282.84V275.6L99.5898 275.32C100.75 275.27 99.9398 273.38 99.2798 272.85L90.7298 266.06C85.1298 261.75 81.4998 255.62 80.6498 248.55L78.3298 229.13C72.2798 232 66.3398 231.42 60.8398 228.26L50.3498 240.51C42.3198 250.31 42.5398 264.49 51.5198 273.46L62.9798 284.9C66.3798 288.29 70.8198 290.23 75.7198 290.24L100.01 290.28C100.2 287.62 100.16 285.42 100.04 282.94L92.7098 282.83V282.84ZM241.11 290.23C251.78 290.23 259.56 281.37 259.42 271.48C259.28 261.75 251.4 253.33 241.18 253.32H144.56C134.14 253.3 126.08 261.91 126.17 271.9C126.25 281.7 134.11 290.23 144.45 290.23H241.12H241.11Z" fill="#EFEFEF"/>
<path d="M222.46 223.59H207.61V231.02H222.46V223.59Z" fill="#EFEFEF"/>
<path d="M244.78 231.13L229.98 230.96C229.73 228.6 229.84 226.29 229.9 223.62L244.63 223.57L244.79 231.13H244.78Z" fill="#EFEFEF"/>
<path d="M226.12 262.05C232.1 255.66 241.51 255.31 247.58 261.19C253.53 266.95 253.59 276.62 247.5 282.46C241.56 288.15 232.1 287.99 226.13 281.51C219.83 288.36 210.08 288.12 203.85 281.54C197.56 288.37 187.78 288.11 181.65 281.54C175.49 288.23 165.55 288.28 159.46 281.46C153.76 287.83 144.42 288.2 138.38 282.73C132.13 277.07 131.96 267.36 137.7 261.51C143.71 255.38 153.44 255.46 159.42 262.09C165.51 255.41 175.46 255.26 181.69 262.09C187.77 255.38 197.7 255.27 203.89 262.07C209.93 255.54 219.7 255.11 226.12 262.05ZM155.7 271.78C155.7 267.71 152.4 264.41 148.33 264.41C144.26 264.41 140.96 267.71 140.96 271.78C140.96 275.85 144.26 279.15 148.33 279.15C152.4 279.15 155.7 275.85 155.7 271.78ZM177.93 271.78C177.93 267.71 174.63 264.41 170.56 264.41C166.49 264.41 163.19 267.71 163.19 271.78C163.19 275.85 166.49 279.15 170.56 279.15C174.63 279.15 177.93 275.85 177.93 271.78ZM200.17 271.78C200.17 267.71 196.87 264.41 192.8 264.41C188.73 264.41 185.43 267.71 185.43 271.78C185.43 275.85 188.73 279.15 192.8 279.15C196.87 279.15 200.17 275.85 200.17 271.78ZM222.41 271.79C222.41 267.72 219.11 264.42 215.04 264.42C210.97 264.42 207.67 267.72 207.67 271.79C207.67 275.86 210.97 279.16 215.04 279.16C219.11 279.16 222.41 275.86 222.41 271.79ZM244.64 271.78C244.64 267.71 241.34 264.41 237.27 264.41C233.2 264.41 229.9 267.71 229.9 271.78C229.9 275.85 233.2 279.15 237.27 279.15C241.34 279.15 244.64 275.85 244.64 271.78Z" fill="#EFEFEF"/>
<path d="M189.12 230.96L144.73 231.01C144.57 227.89 144.54 224.89 144.88 221.76L149.02 201.37H189.06L189.13 230.95L189.12 230.96ZM181.69 223.47L181.64 208.8H155.11L152.2 223.56L181.69 223.47Z" fill="#EFEFEF"/>
</svg>
