<svg width="568" height="366" viewBox="0 0 568 366" fill="none" xmlns="http://www.w3.org/2000/svg">
<path d="M115.27 117.02L148.43 117.1C157.22 117.12 163.71 124.6 163.68 133.37L163.34 235.3C163.32 241.6 156.14 248.46 149.87 248.47L61.7 248.74C53.5 248.76 45.39 242.57 45.38 234.08L45.19 133.36C45.17 124.57 51.66 117.11 60.48 117.09L93.63 117.02C96.9 117.02 98.47 119.65 98.46 122.83L98.23 205.27L53.43 205.95C60.27 229.06 80.96 243.89 103.81 244.18C127.22 244.48 148.45 229.43 155.47 205.99L110.51 205.03V121.68C110.51 118.93 112.78 117.02 115.27 117.03V117.02Z" fill="#FF0030"/>
<path d="M485.77 219.26C481.94 220.04 477.96 219.83 474.19 219.15C473.25 208.4 474.99 197.88 473.31 187.25C472.25 180.56 465.95 178.47 459.97 179.36C454.92 180.11 450 184.43 449.9 190.73L449.44 219.2C445.47 219.9 441.93 219.82 437.77 219.45L437.79 170.21C439.49 169.36 450.64 167.09 449.99 174.18C459.96 166.91 473.8 166.51 482.66 176.7C488.84 170.47 495.81 168.59 503.69 168.98C513.35 169.47 521.69 176.19 521.78 186.23L522.06 219.21C517.66 219.93 514.13 220.08 510.59 219.01C508.55 205.21 517.04 176.93 497.21 179.17C480.27 181.08 487.3 204.28 485.77 219.26Z" fill="#30495C"/>
<path d="M320.62 219.24C318.98 218.8 319.7 216.07 318.7 214.63C310.86 221.18 300.24 221.91 290.98 217.69C282.03 213.6 277.08 203.92 277.46 193.35C277.82 183.48 282.9 175.01 291.18 171.38C300.51 167.29 310.84 167.97 318.86 174.94L319.26 150.49C323.12 150.01 326.82 149.99 330.71 150.56L330.74 219.08C327.22 219.75 324.01 220.16 320.62 219.24ZM319.24 193.78C318.88 184.3 311.84 178.52 303.76 178.77C295.38 179.03 289.41 185.49 289.27 194.4C289.12 203.74 296.01 210.67 304.95 210.3C313.13 209.96 319.6 203.39 319.24 193.78Z" fill="#30495C"/>
<path d="M255.48 204.68C244.44 203.54 233.79 204.22 222.91 204.32L215.98 218.24C214.4 221.42 207.34 219.52 203.65 218.87L232.86 154.23C237.36 153.83 240.88 153.78 245.21 154.22L274.45 218.9C271.08 219.43 265.34 221.03 262.38 218.72C258.69 215.85 258.88 209.83 255.49 204.68H255.48ZM251.21 194.34C246.44 184.61 243.99 175.75 238.66 167.18L226.74 194.48C235.7 194.8 242.67 195.07 251.2 194.34H251.21Z" fill="#30495C"/>
<path d="M422.13 170.05L422.08 219.24C418.07 219.6 414.73 220.34 411.61 219.16C410.52 218.19 411.69 215.88 410.63 213.97C405.97 218.64 400.41 220.21 393.81 220.27C382.82 220.37 373.61 213 373.55 201.77L373.37 170.06C377.23 169.05 381.11 169.05 384.8 170.07C385.52 180.37 384.04 190.59 385.54 201.03C386.58 208.28 393.34 210.88 399.73 209.8C405.44 208.84 410.31 203.93 410.39 197.01L410.69 170.01C414.25 169.04 417.73 169.06 422.14 170.04L422.13 170.05Z" fill="#30495C"/>
<path d="M346.532 169.376L346.514 219.606L358.104 219.61L358.122 169.38L346.532 169.376Z" fill="#30495C"/>
<path d="M352.32 161.5C356.33 161.5 359.58 158.268 359.58 154.28C359.58 150.293 356.33 147.06 352.32 147.06C348.31 147.06 345.06 150.293 345.06 154.28C345.06 158.268 348.31 161.5 352.32 161.5Z" fill="#30495C"/>
</svg>
