<svg width="568" height="366" viewBox="0 0 568 366" fill="none" xmlns="http://www.w3.org/2000/svg">
<path d="M231.12 284.28L222.9 263.48L206.18 263.36C203.26 268.81 198.57 277.96 199.52 284.4L180.6 284.38C181.34 280.99 181.58 277.84 181.83 274.37L181.27 243.85L163.47 284.76L147 243.8C145.66 255.24 146.68 265.77 146.33 276.61C146.24 279.36 147.03 281.77 147.65 284.29C144.9 284.55 142.49 284.59 139.41 284.29C141.47 280.51 142.09 276.42 142.42 271.98C143.17 261.9 142.7 252.01 142.89 241.85C142.93 239.8 142.66 238.1 141.61 236.6C145.22 236.51 148.46 236.26 152.17 236.75L164.99 273.33L179.76 238.61C181.21 235.2 185.64 236.78 189.82 236.61C188.72 239.41 188.47 241.86 188.49 244.64C188.58 256.22 187.57 272.75 190.89 283.34C192.18 282.27 192.97 280.95 193.8 279.46C200.08 268.23 205.49 256.76 210.08 244.72C211.13 241.97 211.59 239.43 211.88 236.58L220.62 236.61L228.44 260.28C231.24 268.75 234.87 276.48 239.11 284.25C236.3 284.61 233.97 284.59 231.11 284.31L231.12 284.28ZM221.68 260.31L215.31 242.05C211.68 247.94 210.19 254.15 207.29 260.31H221.69H221.68Z" fill="#403D39"/>
<path d="M281.47 284.52C280.03 284.79 277.21 285.56 276.1 284.42L247.71 244.54C247.13 254.2 247.52 262.65 247.52 271.56C247.52 275.98 248.23 280.09 249.5 284.22C246.75 284.64 244.17 284.55 241.21 284.25C242.75 279.55 243.53 274.92 243.55 269.88L243.64 244.06C243.65 241.26 242.85 238.99 241.78 236.59C244.99 236.47 247.92 236.29 251.06 236.74L260.79 251.48L277.36 274.38C278.03 264.02 277.49 254.68 277.63 244.98C277.67 242.11 277.08 239.54 276.07 236.61C278.61 236.43 280.92 236.4 283.42 236.61C282.18 239.98 281.48 242.93 281.48 246.34V284.54L281.47 284.52Z" fill="#403D39"/>
<path d="M104.85 263.27C101.58 269.04 97.2699 278.04 98.0499 284.32C95.0399 284.54 92.3198 284.53 89.0898 284.32C96.3898 273.55 104.02 256.99 108.6 244.85C109.65 242.07 110.22 239.49 110.38 236.59C113.36 236.41 116.13 236.38 119.16 236.61L127.41 261.37C130.09 269.41 133.49 276.76 137.62 284.18C134.83 284.65 132.45 284.47 129.63 284.33L121.4 263.42L104.84 263.27H104.85ZM120.22 260.24L113.82 242.09L105.83 260.33L120.22 260.24Z" fill="#403D39"/>
<path d="M299.24 263.37C297.01 267.53 295.41 271.35 293.87 275.44C292.83 278.33 292.39 281.14 292.69 284.29C289.62 284.55 286.77 284.63 283.62 284.22C290.72 274.26 298.52 257.07 302.92 245.57C304.09 242.51 304.84 239.71 304.99 236.53C308.07 236.53 310.84 236.32 313.78 236.62L322.33 262.25C324.93 270.03 328.27 277.15 332.27 284.28C329.47 284.66 327.15 284.43 324.28 284.41L316.08 263.49L299.25 263.37H299.24ZM314.72 259.99C312.07 253.39 311.42 247.7 308.2 242.04L300.47 260.35C305.8 260.22 309.97 260.91 314.72 259.99Z" fill="#403D39"/>
<path d="M97.3698 236.72L85.5998 255.09C82.0498 260.63 80.6198 266.6 80.8598 273.25C80.9898 277.04 80.6798 280.74 82.3098 284.25C78.9898 284.58 76.2998 284.54 72.7598 284.31C74.4098 280.57 73.9898 276.7 74.1998 272.7C74.5298 266.57 73.5398 261.13 70.9598 255.63C67.7898 248.89 64.5698 242.46 59.3198 236.7C66.1698 236.49 67.4998 235.29 70.0998 239.56C74.0598 246.04 76.0498 252.96 78.9298 260.44C82.5798 254.81 85.2198 249.75 87.9398 244.44C89.0298 241.77 89.7698 239.26 88.5798 236.59C91.6098 236.52 94.0498 236.24 97.3698 236.73V236.72Z" fill="#403D39"/>
<path d="M507.93 254.16V264.26C507.52 264.51 507.23 264.99 507.08 265.7C503.7 281.58 488.18 286.81 473.55 284.64C470.41 284.17 467.46 284.69 464.19 284.39C465.06 282.04 465.56 279.74 465.56 277.14V243.52C465.56 241.08 465.12 238.99 464.12 236.54L486 235.75C496.56 235.37 505.27 242.15 507.19 252.6C507.31 253.26 507.41 253.94 507.92 254.16H507.93ZM498.39 270.93C502.41 259.02 500.22 242.45 485.59 239.37C481.24 238.45 476.86 238.52 472.42 239.47L472.36 277.17C472.36 279.6 473.84 281.21 476.18 281.45C485.43 282.41 494.94 281.16 498.39 270.94V270.93Z" fill="#D49E0F"/>
<path d="M409.15 285.59H400.17C400.11 285.44 399.92 285.13 399.52 285.07C392.21 284.06 386.28 279.32 383.77 272.3C381.15 264.99 381.34 257.03 384.01 249.79C387.64 239.96 396.68 234.85 406.9 235.21C416.55 235.55 424.53 240.74 427.18 250.19C429.05 256.88 428.88 263.88 426.61 270.5C423.77 278.75 417.18 283.5 409.15 285.59ZM418.02 247.68C415.73 241.95 410.82 238.46 404.97 238.58C399.33 238.69 394.25 241.95 391.94 247.67C388.61 255.88 389.02 265.36 392.42 273.53C394.85 279.37 399.99 282.6 406.04 282.31C421.4 281.58 423.07 260.33 418.03 247.68H418.02Z" fill="#D49E0F"/>
<path d="M369.3 285.59H353.58C353.11 284.78 352.02 285.03 350.98 284.81C344.49 283.43 338.48 280.15 335.61 273.92C331.91 265.89 332.12 256.29 336.17 248.44C343.14 234.92 361.18 234.04 374.32 236.15C374.52 238.92 374.71 241.24 374.21 244.05C368.14 239.05 360.29 237.08 352.79 239.81C340.94 244.12 338.57 259.47 342.73 270.6C346.56 280.86 357.64 283.82 367.55 281.68C368.68 276.94 368.75 264.73 366.93 260.64L376.5 260.55C374.01 265.97 375.14 277.92 375.43 284.5L369.31 285.6L369.3 285.59Z" fill="#D49E0F"/>
<path d="M460.56 277.88C460.89 280.03 460.03 282.03 459.51 284.31L434.5 284.42C436.07 280.2 436.63 276.05 436.65 271.54L436.75 244.07C436.75 241.46 436.36 239.24 435.41 236.58C438.72 236.47 441.67 236.36 444.97 236.62C443.86 239.57 443.58 242.2 443.59 245.17L443.68 280.64C444.27 281.94 447.24 281.32 448.49 281.37C452.46 281.53 456.61 280.94 460.55 277.89L460.56 277.88Z" fill="#D49E0F"/>
<path d="M321.03 80.1599L323.3 86.4599C322.25 87.6999 323.72 88.0999 324.05 89.1099L344.57 152.06L287.32 193.5C285.87 194.55 284.3 194.29 283.53 196.62C282.48 194.96 281.57 195.02 280.42 194.19L222.24 152.03L245.81 80.1599H321.02H321.03ZM315.64 87.2499C303.34 98.6799 294.12 111.85 284.62 125C284.18 125.61 283.82 126.22 283.19 126.06C282.8 125.96 282.57 125.51 282.22 125.02C272.72 111.76 263.53 98.6999 250.99 86.9899C269.49 119.28 278.33 150.01 283.34 187.25C286.31 167.56 289.78 149.57 295.9 131.29C301.05 115.91 307.74 102.1 315.64 87.2499Z" fill="#D49E0F"/>
<path d="M315.64 87.25C307.74 102.09 301.05 115.91 295.9 131.29C289.78 149.57 286.31 167.56 283.34 187.25C278.32 150.02 269.49 119.28 250.99 86.99C263.53 98.7 272.73 111.76 282.22 125.02C282.57 125.51 282.8 125.96 283.19 126.06C283.82 126.23 284.18 125.61 284.62 125C294.13 111.85 303.34 98.68 315.64 87.25Z" fill="#403D39"/>
</svg>
